<?xml version="1.0" standalone="no"?>
<!DOCTYPE svg PUBLIC "-//W3C//DTD SVG 20010904//EN"
 "http://www.w3.org/TR/2001/REC-SVG-20010904/DTD/svg10.dtd">
<svg version="1.0" xmlns="http://www.w3.org/2000/svg"
 width="1294.000000pt" height="1294.000000pt" viewBox="0 0 1294.000000 1294.000000"
 preserveAspectRatio="xMidYMid meet">
<metadata>
Created by potrace 1.14, written by Peter Selinger 2001-2017
</metadata>
<g transform="translate(0.000000,1294.000000) scale(0.100000,-0.100000)"
fill="#000000" stroke="none">
<path d="M6115 12814 c-237 -13 -638 -66 -879 -115 -1965 -402 -3623 -1770
-4441 -3663 -162 -376 -283 -733 -369 -1099 -47 -194 -107 -515 -122 -642 -11
-102 3 -56 21 65 40 277 120 617 200 853 40 118 45 125 28 37 -9 -48 15 4 61
131 59 167 154 406 178 449 22 40 20 33 -29 -100 -256 -692 -391 -1388 -395
-2035 -1 -218 6 -325 22 -325 15 0 19 31 40 295 34 442 71 732 131 1025 58
278 147 606 228 835 44 126 165 428 182 453 14 22 13 19 -66 -193 -259 -697
-398 -1411 -407 -2095 -4 -269 3 -520 14 -520 4 0 8 55 8 121 0 183 28 661 51
864 41 371 101 664 222 1085 119 413 236 706 395 992 44 79 108 199 142 267
35 69 104 186 153 260 107 163 341 488 371 516 11 11 34 38 51 60 61 83 218
265 228 265 5 0 84 73 176 163 332 325 578 524 936 760 699 459 1526 771 2365
892 63 9 156 25 205 35 123 25 438 34 695 21 514 -27 576 -32 725 -61 83 -16
191 -36 240 -45 292 -52 639 -152 1020 -295 672 -251 1432 -746 1949 -1269 82
-83 151 -151 152 -151 2 0 1 8 -2 18 -14 44 138 -136 315 -372 252 -337 396
-552 543 -811 59 -105 208 -403 243 -485 14 -36 33 -70 40 -76 47 -36 249
-682 330 -1053 73 -336 119 -675 103 -761 -7 -38 -7 -89 1 -166 6 -60 11 -218
11 -350 1 -131 5 -259 10 -284 10 -51 -13 -360 -30 -404 -5 -14 -17 -72 -25
-129 -8 -56 -22 -148 -31 -205 -9 -56 -14 -109 -11 -117 8 -19 -52 -302 -104
-490 -51 -189 -197 -629 -251 -758 -57 -137 -182 -391 -279 -565 -190 -343
-395 -644 -638 -942 -76 -92 -128 -150 -341 -383 -29 -32 -50 -60 -47 -63 16
-16 266 203 496 435 148 149 171 168 146 126 -187 -331 -639 -804 -1110 -1163
-249 -189 -636 -442 -825 -537 -30 -16 -50 -30 -43 -32 6 -2 51 16 100 40 48
25 106 52 128 61 l40 16 -25 -19 c-14 -11 -61 -41 -105 -67 -44 -26 -100 -60
-124 -75 -25 -16 -54 -29 -65 -30 -20 0 -220 -97 -203 -98 4 -1 48 20 98 45
50 25 93 44 95 41 2 -2 -104 -57 -236 -122 -132 -65 -239 -119 -237 -121 3 -4
270 104 407 165 693 309 1403 825 1917 1395 442 490 768 978 1032 1544 82 175
221 513 220 535 0 6 -7 -6 -16 -28 -100 -251 -283 -655 -297 -655 -4 0 9 30
28 67 18 38 43 88 54 113 11 25 41 92 67 150 79 176 170 415 235 620 34 107
66 206 71 220 10 27 10 29 -6 -57 -13 -68 17 26 50 156 91 364 148 688 175
1011 19 219 21 267 25 610 2 190 8 363 12 384 4 21 7 -161 6 -405 -2 -385 -7
-545 -28 -766 -2 -26 2 -7 10 42 25 160 31 275 33 580 3 382 12 621 24 580 24
-88 7 -737 -28 -1080 -68 -668 -226 -1280 -489 -1901 -45 -105 -220 -460 -273
-554 -110 -194 -290 -476 -391 -613 -83 -113 -110 -154 -94 -144 21 13 182
233 285 387 264 398 459 801 654 1350 40 113 73 200 74 195 0 -22 -147 -441
-188 -535 -11 -25 -39 -90 -62 -145 -63 -150 -228 -475 -323 -637 -875 -1492
-2302 -2542 -3967 -2921 -441 -101 -819 -145 -1305 -153 -303 -6 -553 6 -800
36 -44 6 -98 12 -120 15 -58 7 -177 26 -200 31 -16 4 -17 3 -5 -4 8 -5 49 -15
90 -22 41 -6 111 -18 155 -25 112 -19 359 -43 560 -55 642 -37 1311 33 1974
205 74 19 136 33 138 31 6 -6 -363 -106 -546 -147 -325 -74 -626 -118 -1066
-154 -190 -16 -234 -27 -179 -42 56 -16 549 -8 699 11 947 119 1796 413 2580
894 747 458 1433 1118 1922 1848 507 756 824 1564 977 2489 228 1375 -4 2933
-606 4059 -480 896 -1192 1692 -2032 2270 -767 528 -1627 877 -2541 1031 -360
61 -545 76 -940 79 -192 2 -381 2 -420 0z m1503 -179 c357 -72 548 -125 802
-222 714 -273 1342 -636 1885 -1089 139 -116 450 -415 467 -449 6 -11 -34 25
-88 80 -488 494 -1130 943 -1770 1239 -479 220 -1030 390 -1534 471 -58 10
-107 20 -110 23 -12 12 137 -11 348 -53z m3587 -2255 c10 -11 16 -20 13 -20
-3 0 -13 9 -23 20 -10 11 -16 20 -13 20 3 0 13 -9 23 -20z m36 -47 c13 -16 12
-17 -3 -4 -17 13 -22 21 -14 21 2 0 10 -8 17 -17z m70 -90 c13 -16 12 -17 -3
-4 -17 13 -22 21 -14 21 2 0 10 -8 17 -17z m87 -120 c73 -104 112 -165 96
-148 -6 6 -32 42 -59 80 -27 39 -64 91 -82 118 -19 26 -32 47 -29 47 3 0 36
-44 74 -97z m322 -518 c223 -398 403 -830 531 -1273 53 -182 129 -499 128
-529 0 -10 -16 47 -35 127 -78 330 -197 705 -312 985 -102 247 -201 449 -357
730 -77 138 -109 216 -54 130 18 -27 62 -104 99 -170z m-10714 -562 c-8 -15
-15 -25 -16 -21 0 12 23 58 27 54 3 -2 -2 -17 -11 -33z m11421 -1015 c-3 -8
-6 -5 -6 6 -1 11 2 17 5 13 3 -3 4 -12 1 -19z m10 -50 c-3 -7 -5 -2 -5 12 0
14 2 19 5 13 2 -7 2 -19 0 -25z m10 -40 c-3 -8 -6 -5 -6 6 -1 11 2 17 5 13 3
-3 4 -12 1 -19z m10 -50 c-3 -7 -5 -2 -5 12 0 14 2 19 5 13 2 -7 2 -19 0 -25z
m10 -50 c-3 -7 -5 -2 -5 12 0 14 2 19 5 13 2 -7 2 -19 0 -25z m10 -50 c-3 -7
-5 -2 -5 12 0 14 2 19 5 13 2 -7 2 -19 0 -25z m-90 -30 c-3 -8 -6 -5 -6 6 -1
11 2 17 5 13 3 -3 4 -12 1 -19z m100 -40 c-2 -13 -4 -5 -4 17 -1 22 1 32 4 23
2 -10 2 -28 0 -40z m-90 -20 c-3 -7 -5 -2 -5 12 0 14 2 19 5 13 2 -7 2 -19 0
-25z m10 -55 c-3 -10 -5 -4 -5 12 0 17 2 24 5 18 2 -7 2 -21 0 -30z m100 -15
c-3 -7 -5 -2 -5 12 0 14 2 19 5 13 2 -7 2 -19 0 -25z m-90 -50 c-3 -7 -5 -2
-5 12 0 14 2 19 5 13 2 -7 2 -19 0 -25z m100 0 c-3 -8 -6 -5 -6 6 -1 11 2 17
5 13 3 -3 4 -12 1 -19z m-90 -50 c-3 -8 -6 -5 -6 6 -1 11 2 17 5 13 3 -3 4
-12 1 -19z m100 -35 c-3 -10 -5 -4 -5 12 0 17 2 24 5 18 2 -7 2 -21 0 -30z
m22 -143 c1 -40 -12 -82 -21 -70 -2 3 -2 39 0 80 5 81 20 73 21 -10z m-68
-163 c-13 -13 -15 15 -3 53 7 24 7 23 10 -9 2 -18 -1 -38 -7 -44z m39 -62 c-7
-69 -16 -123 -20 -118 -7 8 20 256 28 249 2 -3 -2 -62 -8 -131z m48 14 c-3
-56 -9 -94 -17 -102 -11 -10 -12 -1 -7 52 3 35 6 89 6 120 1 45 3 52 11 37 7
-11 10 -54 7 -107z m-364 -214 l5 -100 -14 90 c-7 50 -13 108 -13 130 0 80 17
-13 22 -120z m433 -1447 c-3 -7 -5 -2 -5 12 0 14 2 19 5 13 2 -7 2 -19 0 -25z
m-32 -200 c-14 -79 -42 -204 -61 -278 -39 -151 -123 -414 -130 -407 -2 2 2 22
10 45 51 143 163 590 191 762 5 25 10 39 12 33 3 -7 -7 -77 -22 -155z m-238
-70 c-3 -8 -6 -5 -6 6 -1 11 2 17 5 13 3 -3 4 -12 1 -19z m-10 -40 c-3 -8 -6
-5 -6 6 -1 11 2 17 5 13 3 -3 4 -12 1 -19z m-10 -50 c-3 -8 -6 -5 -6 6 -1 11
2 17 5 13 3 -3 4 -12 1 -19z m-10 -40 c-3 -8 -6 -5 -6 6 -1 11 2 17 5 13 3 -3
4 -12 1 -19z m-10 -40 c-3 -8 -6 -5 -6 6 -1 11 2 17 5 13 3 -3 4 -12 1 -19z
m-10 -40 c-3 -8 -6 -5 -6 6 -1 11 2 17 5 13 3 -3 4 -12 1 -19z m-13 -57 c-4
-17 -9 -30 -11 -27 -3 2 -2 19 2 36 9 41 17 33 9 -9z m53 -163 c-3 -8 -6 -5
-6 6 -1 11 2 17 5 13 3 -3 4 -12 1 -19z m-23 -82 c-3 -15 -8 -25 -11 -23 -2 3
-1 17 3 31 3 15 8 25 11 23 2 -3 1 -17 -3 -31z m-309 -1045 c-21 -43 -29 -39
-8 4 9 19 18 33 21 31 2 -2 -4 -18 -13 -35z m-245 -31 c-11 -22 -23 -40 -25
-40 -3 0 4 18 15 40 11 22 23 40 25 40 3 0 -4 -18 -15 -40z m159 -132 c-164
-318 -394 -666 -663 -1002 -154 -193 -253 -303 -446 -496 -237 -237 -360 -344
-645 -558 -216 -163 -393 -281 -587 -391 -97 -55 -65 -28 48 40 58 35 147 95
198 133 50 37 156 116 236 174 165 120 350 269 507 409 485 432 958 1017 1283
1586 40 70 75 127 77 127 2 0 -2 -10 -8 -22z m-2429 -2493 c0 -2 -10 -9 -22
-15 -22 -11 -22 -10 -4 4 21 17 26 19 26 11z"/>
<path d="M285 7210 c-3 -5 -1 -10 4 -10 6 0 11 5 11 10 0 6 -2 10 -4 10 -3 0
-8 -4 -11 -10z"/>
<path d="M280 7170 c0 -5 5 -10 10 -10 6 0 10 5 10 10 0 6 -4 10 -10 10 -5 0
-10 -4 -10 -10z"/>
<path d="M280 7130 c0 -5 5 -10 10 -10 6 0 10 5 10 10 0 6 -4 10 -10 10 -5 0
-10 -4 -10 -10z"/>
<path d="M2685 7120 c-11 -4 -40 -13 -64 -20 -58 -16 -137 -90 -167 -157 -38
-85 -47 -224 -41 -659 5 -441 9 -470 77 -561 74 -97 180 -138 344 -131 129 5
209 33 272 95 98 94 107 161 102 736 -4 429 -4 432 -29 496 -17 45 -40 81 -75
117 -68 70 -145 94 -295 93 -57 0 -113 -4 -124 -9z m262 -127 c62 -30 97 -73
123 -151 18 -53 20 -90 20 -480 0 -399 -1 -426 -20 -486 -35 -106 -110 -161
-236 -173 -115 -11 -213 39 -262 131 l-27 51 -3 464 c-2 416 -1 468 14 510 25
68 57 106 111 132 91 44 192 45 280 2z"/>
<path d="M1245 7108 c-3 -7 -4 -348 -3 -758 l3 -745 40 -1 c22 0 46 1 53 4 9
3 12 74 12 308 l0 304 149 0 149 0 54 -97 c29 -54 55 -102 57 -108 2 -5 38
-73 79 -150 42 -77 88 -165 103 -196 15 -31 35 -59 44 -63 30 -11 115 -7 120
7 3 7 -25 69 -63 137 -158 288 -235 427 -253 452 -24 35 -24 45 1 53 28 9 136
110 169 159 102 149 101 381 -2 534 -37 55 -134 127 -200 148 -71 23 -504 33
-512 12z m432 -106 c173 -48 260 -200 228 -398 -18 -112 -55 -167 -150 -225
-38 -23 -50 -24 -222 -27 l-183 -4 0 330 c0 181 3 332 7 336 11 11 273 1 320
-12z"/>
<path d="M3605 7108 c-3 -7 -4 -348 -3 -758 l3 -745 50 0 50 0 3 635 3 635 38
-80 c21 -44 82 -179 136 -300 54 -121 102 -225 106 -231 5 -6 15 -28 23 -50
13 -36 42 -102 117 -261 16 -34 36 -82 46 -105 9 -24 19 -47 23 -53 4 -5 22
-46 40 -90 18 -44 40 -86 48 -92 17 -14 110 -17 130 -5 10 7 12 165 10 758
l-3 749 -60 0 -60 0 -5 -587 c-3 -322 -8 -589 -11 -592 -3 -3 -26 38 -51 92
-46 96 -107 224 -188 397 -74 157 -131 278 -165 350 -18 39 -56 120 -84 180
-80 174 -69 160 -134 163 -40 2 -59 -1 -62 -10z"/>
<path d="M4847 7114 c-4 -4 -7 -344 -7 -755 l0 -749 23 -5 c13 -4 43 -5 68 -3
l44 3 0 755 0 755 -60 3 c-34 2 -64 0 -68 -4z"/>
<path d="M5415 7108 c-3 -7 -4 -348 -3 -758 l3 -745 35 -1 c75 -3 70 -21 70
263 l0 255 97 144 96 145 39 -82 c21 -45 38 -83 38 -85 0 -4 110 -262 139
-326 11 -24 34 -77 51 -118 17 -41 40 -93 50 -116 11 -23 20 -46 20 -52 0 -18
35 -32 77 -32 58 0 68 11 48 50 -9 18 -23 49 -30 69 -7 20 -26 65 -43 101 -16
36 -80 180 -141 320 -62 140 -124 279 -138 309 -22 47 -24 58 -12 75 7 12 46
80 87 151 41 72 82 142 91 157 70 116 151 263 151 275 0 11 -14 13 -62 11
l-63 -3 -72 -110 c-40 -60 -81 -123 -91 -140 -30 -46 -138 -216 -237 -369
l-90 -139 -5 379 -5 379 -48 3 c-32 2 -49 -1 -52 -10z"/>
<path d="M6555 7108 c-3 -7 -4 -348 -3 -758 l3 -745 45 0 45 0 3 618 c1 400 6
617 12 617 6 0 10 -6 10 -14 0 -7 12 -40 26 -72 14 -33 30 -68 34 -79 17 -39
83 -201 106 -261 12 -34 32 -81 43 -105 11 -24 27 -62 35 -84 8 -22 31 -78 50
-125 l34 -85 60 -3 59 -3 31 73 c17 40 51 121 76 180 25 59 46 110 46 113 0 3
12 32 26 63 32 72 33 72 95 222 28 69 56 136 63 150 8 19 12 -120 16 -590 l5
-615 50 0 50 0 0 755 0 755 -51 3 c-58 3 -61 1 -93 -78 -13 -30 -31 -73 -42
-96 -10 -22 -19 -44 -19 -48 0 -4 -14 -38 -31 -74 -17 -37 -41 -94 -54 -127
-12 -33 -48 -121 -80 -195 -73 -174 -135 -323 -135 -327 0 -11 -19 0 -23 15
-5 17 -96 239 -122 297 -7 17 -35 82 -60 145 -46 111 -97 232 -156 372 -16 36
-29 73 -29 82 0 8 -9 20 -19 26 -28 14 -101 13 -106 -2z"/>
<path d="M8335 7108 c-2 -7 -9 -31 -14 -53 -8 -36 -57 -215 -96 -350 -15 -51
-50 -180 -87 -315 -11 -41 -29 -105 -39 -142 -10 -38 -27 -98 -38 -135 -10
-38 -33 -120 -51 -183 -50 -180 -81 -311 -74 -321 3 -5 25 -9 48 -9 56 0 50
-13 112 245 13 55 30 123 37 150 l13 50 236 3 c219 2 237 1 242 -15 20 -67 77
-289 87 -341 14 -76 25 -88 76 -90 59 -2 65 5 48 63 -7 28 -35 127 -60 220
-26 94 -53 193 -61 220 -8 28 -28 102 -44 165 -17 63 -39 144 -50 180 -20 65
-49 172 -90 330 -13 47 -28 101 -35 120 -7 19 -18 61 -25 93 -6 33 -18 74 -26
93 -13 32 -18 34 -59 34 -28 0 -47 -5 -50 -12z m100 -303 c8 -27 26 -99 40
-160 14 -60 32 -135 40 -165 21 -83 75 -306 75 -314 0 -3 -92 -6 -205 -6 -157
0 -205 3 -205 13 1 14 4 29 61 242 23 88 48 187 56 220 8 33 23 89 33 125 10
36 25 94 35 130 26 99 27 100 42 30 8 -36 21 -87 28 -115z"/>
<path d="M9205 7108 c-3 -7 -4 -348 -3 -758 l3 -745 45 -3 c25 -1 50 1 57 6
10 6 13 152 14 627 l1 620 29 -60 c31 -66 63 -136 134 -295 26 -58 61 -134 77
-170 17 -36 46 -101 65 -145 20 -44 53 -117 74 -163 22 -46 39 -85 39 -87 0
-2 15 -37 34 -77 18 -40 49 -107 67 -148 47 -107 52 -111 118 -108 l56 3 3
758 2 757 -49 0 c-29 0 -53 -5 -58 -12 -4 -7 -10 -278 -13 -603 l-5 -590 -41
85 c-78 159 -174 361 -174 365 0 2 -30 66 -66 142 -36 76 -97 206 -136 288
-38 83 -85 182 -104 220 -19 39 -34 75 -34 82 0 16 -25 23 -81 23 -31 0 -51
-5 -54 -12z"/>
<path d="M10447 7114 c-4 -4 -7 -344 -7 -755 0 -838 -8 -759 78 -759 26 0 53
4 60 8 10 7 12 165 10 758 l-3 749 -65 3 c-36 2 -69 0 -73 -4z"/>
<path d="M11015 7108 c-3 -7 -4 -348 -3 -758 l3 -745 50 0 50 0 5 261 5 262
49 73 c27 41 60 90 73 109 14 19 35 51 46 69 l21 35 33 -70 c18 -38 41 -91 52
-119 24 -62 165 -386 191 -441 11 -22 20 -44 20 -48 0 -4 14 -36 30 -71 l30
-65 48 0 c75 0 81 9 49 74 -15 30 -27 57 -27 60 0 3 -13 34 -29 68 -16 35 -52
117 -81 183 -29 66 -63 145 -77 175 -62 136 -143 330 -143 342 0 7 76 146 169
308 93 162 168 298 165 301 -2 3 -30 7 -63 8 l-60 2 -48 -73 c-26 -41 -54 -82
-60 -93 -26 -42 -139 -217 -238 -370 -58 -88 -115 -178 -127 -200 l-23 -40 -5
385 -5 385 -48 3 c-32 2 -49 -1 -52 -10z"/>
<path d="M278 7078 c-3 -13 -9 -31 -13 -40 -4 -10 -3 -18 3 -18 5 0 13 16 17
36 7 39 1 59 -7 22z"/>
<path d="M260 6980 c0 -5 5 -10 10 -10 6 0 10 5 10 10 0 6 -4 10 -10 10 -5 0
-10 -4 -10 -10z"/>
<path d="M260 6920 c0 -5 5 -10 10 -10 6 0 10 5 10 10 0 6 -4 10 -10 10 -5 0
-10 -4 -10 -10z"/>
<path d="M266 6872 c-3 -6 -11 -56 -17 -112 -8 -74 -8 -105 0 -113 8 -8 11 12
11 74 0 46 4 100 10 118 10 34 8 51 -4 33z"/>
<path d="M244 6560 c1 -33 4 -60 9 -60 4 0 7 27 7 60 0 33 -4 60 -8 60 -5 0
-8 -27 -8 -60z"/>
<path d="M244 6300 c1 -93 4 -170 9 -170 4 0 7 77 7 170 0 94 -4 170 -8 170
-5 0 -8 -76 -8 -170z"/>
<path d="M240 6000 c0 -5 5 -10 10 -10 6 0 10 5 10 10 0 6 -4 10 -10 10 -5 0
-10 -4 -10 -10z"/>
<path d="M12502 5700 c0 -14 2 -19 5 -12 2 6 2 18 0 25 -3 6 -5 1 -5 -13z"/>
<path d="M769 4017 c87 -204 282 -588 383 -755 208 -345 493 -728 731 -983
145 -155 462 -469 557 -550 263 -226 656 -506 890 -636 30 -17 98 -54 150 -84
52 -29 105 -57 117 -63 13 -6 23 -14 23 -18 0 -5 9 -8 19 -8 11 0 21 -4 23 -8
3 -9 214 -112 229 -112 5 0 9 -4 9 -10 0 -5 9 -10 20 -10 11 0 20 -4 20 -10 0
-5 9 -10 20 -10 11 0 20 -4 20 -10 0 -5 9 -10 20 -10 11 0 20 -4 20 -10 0 -5
7 -10 16 -10 14 0 66 -21 209 -85 292 -131 439 -180 751 -250 187 -42 280 -57
229 -35 -11 4 -99 27 -195 50 -152 36 -548 158 -635 195 -16 7 -75 32 -130 55
-55 23 -113 48 -129 56 -16 8 -34 14 -39 14 -12 0 -444 214 -512 254 -27 16
-72 41 -100 57 -405 225 -866 565 -1190 879 -168 163 -377 379 -440 454 -28
33 -75 89 -105 125 -195 233 -378 488 -562 786 -136 220 -175 288 -297 530
-118 231 -165 314 -122 212z"/>
<path d="M10520 2432 c-165 -176 -275 -275 -512 -467 -158 -128 -216 -181
-129 -118 299 215 331 242 504 418 203 205 290 301 285 312 -1 5 -68 -61 -148
-145z"/>
<path d="M2655 1843 c30 -27 57 -50 195 -164 36 -30 106 -84 155 -121 50 -37
99 -73 110 -82 11 -8 56 -39 100 -68 44 -29 85 -56 90 -61 42 -35 352 -214
505 -291 452 -229 791 -353 1284 -470 170 -41 229 -53 386 -77 36 -6 89 -15
118 -21 28 -6 55 -9 58 -6 5 6 -65 26 -121 34 -140 21 -182 28 -270 45 -269
54 -612 159 -917 280 -217 87 -613 276 -753 361 -49 30 -147 87 -218 127 -140
80 -351 230 -552 391 -71 58 -146 116 -165 129 l-35 23 30 -29z"/>
<path d="M3610 1500 c14 -11 30 -20 37 -20 6 0 13 -4 15 -8 2 -5 66 -41 143
-82 77 -40 147 -77 155 -81 36 -21 133 -59 138 -55 2 3 -76 45 -175 94 -98 50
-203 104 -233 122 -30 18 -66 36 -80 41 l-25 9 25 -20z"/>
<path d="M8460 1074 c-36 -12 -119 -40 -185 -60 -66 -20 -124 -41 -130 -47 -7
-6 -1 -7 15 -3 14 4 39 9 55 12 17 3 39 10 50 14 11 5 79 28 150 51 72 23 134
46 140 50 16 15 -27 8 -95 -17z"/>
<path d="M3996 915 c4 -8 12 -15 19 -15 6 0 25 -6 41 -14 16 -8 46 -21 67 -30
20 -9 52 -22 70 -30 108 -47 218 -87 229 -83 9 3 6 7 -7 12 -67 24 -193 74
-270 108 -164 72 -155 69 -149 52z"/>
<path d="M6357 726 c23 -14 399 -14 413 0 5 5 -73 9 -211 10 -162 0 -216 -2
-202 -10z"/>
<path d="M7750 480 c-173 -36 -471 -81 -710 -107 -133 -14 -250 -18 -600 -18
-239 1 -417 -2 -395 -6 22 -4 149 -12 283 -19 243 -12 385 -8 697 21 139 13
408 47 460 59 22 5 69 14 105 20 100 18 153 30 196 45 41 15 23 18 -36 5z"/>
</g>
</svg>
